<?xml version="1.0" encoding="utf-8"?>
<!-- Generator: Adobe Illustrator 16.0.0, SVG Export Plug-In . SVG Version: 6.00 Build 0)  -->
<!DOCTYPE svg PUBLIC "-//W3C//DTD SVG 1.1//EN" "http://www.w3.org/Graphics/SVG/1.1/DTD/svg11.dtd">
<svg version="1.1" id="Layer_1" xmlns="http://www.w3.org/2000/svg" xmlns:xlink="http://www.w3.org/1999/xlink" x="0px" y="0px"
	 width="64px" height="64px" viewBox="0 0 64 64" enable-background="new 0 0 64 64" xml:space="preserve">
<g>
	<path fill="#4374BA" d="M33.551,14.987c0,0,13.629,7.534,11.617,21.794c-2.01,14.26-7.584,26.1-7.584,26.1l15.18-20.719
		l9.16,19.643c0,0-2.471-7.102-5.301-23.693c-0.969-5.685-1.266-7.087,6.33-23.68L50.977,27.095
		C50.977,27.095,42.711,19.561,33.551,14.987z"/>
	<ellipse fill="#4374BA" cx="50.979" cy="20.281" rx="3.184" ry="4.338"/>
</g>
<g>
	<path fill="#4374BA" d="M1.046,9.338c0,0,11.321,6.259,9.65,18.105c-1.67,11.846-6.301,21.68-6.301,21.68l12.611-17.21
		l7.608,16.315c0,0-2.051-5.898-4.402-19.682c-0.805-4.722-1.051-5.886,5.259-19.67l-9.949,10.519
		C15.522,19.396,8.655,13.138,1.046,9.338z"/>
	<ellipse fill="#4374BA" cx="15.523" cy="13.736" rx="2.645" ry="3.604"/>
</g>
<g>
	<path fill="#4374BA" d="M12.551,1.759c0,0,15.685,8.671,13.371,25.083c-2.314,16.414-8.73,30.039-8.73,30.039l17.473-23.846
		l10.541,22.605c0,0-2.842-8.172-6.1-27.269c-1.115-6.542-1.457-8.155,7.285-27.252L32.607,15.694
		C32.607,15.694,23.093,7.023,12.551,1.759z"/>
	<ellipse fill="#4374BA" cx="32.609" cy="7.852" rx="3.665" ry="4.993"/>
</g>
</svg>
