<?xml version="1.0" encoding="utf-8"?>
<!-- Generator: Adobe Illustrator 16.0.0, SVG Export Plug-In . SVG Version: 6.00 Build 0)  -->
<!DOCTYPE svg PUBLIC "-//W3C//DTD SVG 1.1//EN" "http://www.w3.org/Graphics/SVG/1.1/DTD/svg11.dtd">
<svg version="1.1" id="Layer_1" xmlns="http://www.w3.org/2000/svg" xmlns:xlink="http://www.w3.org/1999/xlink" x="0px" y="0px"
	 width="64px" height="64px" viewBox="0 0 64 64" enable-background="new 0 0 64 64" xml:space="preserve">
<g>
	<path fill-rule="evenodd" clip-rule="evenodd" fill="#4374BA" d="M61.822,34.245c-1.764,9.112-6.74,15.869-14.867,20.353
		c0.347,0.566,0.625,1.158,0.653,1.845c0.078,1.882-1.437,3.464-3.351,3.464c-3.172,0.003-6.345-0.015-9.518-0.015
		c-3.582,0-7.166,0.013-10.748,0.017c-1.035,0.002-1.914-0.35-2.626-1.121c-0.908-0.983-1.1-2.646-0.412-3.802
		c0.075-0.128,0.147-0.257,0.236-0.408c-5.479-2.905-9.627-7.106-12.38-12.654c-1.212-2.443-2.041-5.02-2.455-7.652
		c1.177,0.491,2.332,1.045,3.536,1.455c1.293,0.441,2.622,0.786,3.954,1.1c1.323,0.311,2.661,0.585,4.005,0.775
		c2.026,0.288,4.061,0.521,6.099,0.724c4.346,0.434,8.709,0.502,13.073,0.401c2.231-0.051,4.466-0.158,6.688-0.35
		c2.268-0.196,4.53-0.479,6.779-0.808c2.682-0.394,5.33-0.965,7.887-1.878C59.531,35.278,60.645,34.743,61.822,34.245z"/>
	<path fill-rule="evenodd" clip-rule="evenodd" fill="#4374BA" d="M27.159,26.026c1.709-0.049,3.356-0.14,5.002-0.132
		c2.861,0.012,5.725,0.04,8.583,0.149c2.218,0.085,4.437,0.244,6.644,0.482c2.236,0.241,4.466,0.583,6.687,0.948
		c1.76,0.29,3.497,0.708,5.147,1.401c0.626,0.262,1.248,0.576,1.793,0.974c1.087,0.793,0.891,1.674-0.088,2.358
		c-0.686,0.479-1.456,0.859-2.234,1.173c-1.931,0.781-3.958,1.259-6.004,1.604c-2.23,0.378-4.478,0.675-6.726,0.932
		c-5.347,0.615-10.715,0.715-16.085,0.538c-2.458-0.082-4.917-0.233-7.363-0.483c-2.478-0.254-4.949-0.606-7.404-1.029
		C12.872,34.556,10.663,34,8.573,33.07c-0.686-0.304-1.359-0.651-1.877-1.23c-0.535-0.597-0.504-1.27,0.089-1.809
		c0.79-0.718,1.754-1.114,2.742-1.435c1.063-0.344,2.148-0.63,3.236-0.886c0.889-0.209,1.795-0.345,2.698-0.491
		c0.093-0.015,0.265,0.107,0.311,0.207c0.649,1.375,1.462,2.637,2.521,3.734c1.074,1.11,2.353,1.896,3.795,2.442
		c1.267,0.48,2.57,0.742,3.928,0.663c1.178-0.067,2.267-0.391,3.042-1.346c0.854-1.051,0.809-2.228,0.388-3.44
		c-0.443-1.281-1.231-2.328-2.166-3.283C27.25,26.166,27.228,26.125,27.159,26.026z M56.798,32.465
		c-0.265-0.383-0.443-0.718-0.691-0.991c-0.649-0.717-0.543-0.797-1.416-0.324c-1.089,0.589-2.292,0.571-3.486,0.47
		c-0.68-0.058-1.305-0.286-1.894-0.645c-0.284-0.172-0.639-0.323-0.96-0.323c-2.057,0.003-4.123-0.155-6.17,0.17
		c-0.16,0.025-0.331,0.09-0.462,0.186c-1.34,0.974-2.841,1.518-4.486,1.589c-0.643,0.028-1.241,0.136-1.828,0.373
		c-0.137,0.056-0.284,0.087-0.421,0.141c-0.675,0.271-1.44,0.334-1.935,0.99c-0.24,0.316-0.59,0.552-0.936,0.867
		c1.183,0,2.299,0.018,3.418-0.003c4.167-0.078,8.323-0.306,12.461-0.825c2.395-0.301,4.771-0.693,7.121-1.238
		C55.645,32.779,56.169,32.629,56.798,32.465z M10.16,32.128c2.541,0.813,5.137,1.335,7.856,1.735
		c-0.165-0.121-0.258-0.185-0.343-0.256c-0.778-0.65-1.637-1.229-2.31-1.975c-0.568-0.629-1.122-0.917-1.972-0.893
		c-0.71,0.021-1.465,0.02-2.077-0.336C10.485,30.679,10.273,31.34,10.16,32.128z"/>
	<path fill-rule="evenodd" clip-rule="evenodd" fill="#4374BA" d="M25.501,32.48c-1.392-0.001-2.683-0.397-3.9-1.043
		c-1.928-1.023-3.196-2.652-4.102-4.591c-0.367-0.784-0.634-1.619-1.036-2.384c-0.47-0.895-1.272-1.51-2.029-2.161
		c-1.576-1.357-3.119-2.749-4.692-4.108c-1.297-1.121-2.608-2.228-3.931-3.318c-1.242-1.024-2.509-2.02-3.767-3.026
		c-0.071-0.058-0.146-0.11-0.221-0.162c-0.478-0.328-0.537-0.625-0.208-1.121c0.087-0.131,0.207-0.241,0.317-0.356
		c0.208-0.214,0.426-0.234,0.666-0.042c0.953,0.763,1.936,1.493,2.857,2.293c1.631,1.416,3.235,2.862,4.832,4.316
		c1.952,1.775,3.875,3.581,5.828,5.355c0.581,0.526,1.209,1.001,1.831,1.48c0.51,0.392,1.138,0.477,1.747,0.552
		c2.355,0.29,4.296,1.394,6.004,2.978c0.902,0.835,1.676,1.766,2.07,2.944c0.377,1.129,0.153,1.769-0.658,2.131
		c-0.328,0.146-0.703,0.19-1.061,0.256C25.873,32.506,25.686,32.48,25.501,32.48z"/>
	<path fill-rule="evenodd" clip-rule="evenodd" fill="#4374BA" d="M37.663,24.941c0.119-0.362,0.243-0.722,0.355-1.086
		c0.136-0.436,0.3-0.867,0.381-1.313c0.194-1.05-0.305-1.85-0.991-2.577c-0.714-0.754-1.47-1.477-2.102-2.296
		c-1.037-1.344-1.266-2.858-0.642-4.462c0.644-1.655,1.74-2.952,3.175-3.978c0.037-0.027,0.071-0.064,0.113-0.075
		c0.126-0.034,0.253-0.056,0.38-0.081c-0.012,0.128,0.015,0.278-0.042,0.383c-0.32,0.605-0.661,1.199-0.994,1.797
		c-0.512,0.918-1.041,1.827-1.19,2.895c-0.138,0.995,0.077,1.879,0.755,2.642c0.645,0.727,1.286,1.455,1.908,2.2
		c0.786,0.942,1.255,2.018,1.008,3.259c-0.218,1.101-0.809,2.013-1.74,2.677c-0.076,0.054-0.184,0.065-0.276,0.096
		C37.729,24.996,37.695,24.969,37.663,24.941z"/>
	<path fill-rule="evenodd" clip-rule="evenodd" fill="#4374BA" d="M44.017,18.717c0.057-0.247,0.087-0.42,0.139-0.587
		c0.204-0.676,0.48-1.337,0.608-2.027c0.143-0.773-0.176-1.468-0.691-2.043c-0.562-0.629-1.161-1.228-1.745-1.837
		c-1.067-1.116-1.766-2.382-1.655-3.987c0.062-0.878,0.39-1.668,0.825-2.411c0.614-1.044,1.406-1.942,2.361-2.69
		c0.171-0.132,0.362-0.239,0.554-0.338c0.068-0.037,0.164-0.018,0.247-0.024c0.005,0.086,0.04,0.188,0.006,0.258
		c-0.146,0.321-0.309,0.636-0.474,0.948c-0.488,0.929-1.033,1.834-1.456,2.792c-0.391,0.884-0.555,1.856-0.112,2.765
		c0.288,0.594,0.74,1.117,1.157,1.641c0.495,0.625,1.065,1.191,1.543,1.83c1.309,1.751,1.013,3.519-0.304,5.029
		c-0.192,0.22-0.44,0.391-0.673,0.573C44.283,18.657,44.186,18.663,44.017,18.717z"/>
	<path fill-rule="evenodd" clip-rule="evenodd" fill="#4374BA" d="M30.373,5.177c-0.064,0.196-0.103,0.407-0.199,0.586
		c-0.496,0.913-1.033,1.804-1.503,2.729c-0.444,0.872-0.751,1.79-0.589,2.801c0.112,0.693,0.475,1.249,0.922,1.764
		c0.636,0.734,1.302,1.444,1.903,2.207c1.236,1.572,1.223,3.383-0.081,4.993c-0.232,0.288-0.542,0.518-0.827,0.757
		c-0.061,0.049-0.185,0.023-0.279,0.033c0.001-0.086-0.02-0.177,0.005-0.256c0.201-0.643,0.427-1.277,0.614-1.922
		c0.292-1.017-0.064-1.864-0.747-2.605c-0.696-0.756-1.435-1.475-2.096-2.26c-1.344-1.597-1.526-3.365-0.626-5.24
		c0.649-1.354,1.607-2.459,2.804-3.358c0.174-0.131,0.391-0.208,0.588-0.309C30.298,5.122,30.335,5.15,30.373,5.177z"/>
	<path fill-rule="evenodd" clip-rule="evenodd" fill="#4374BA" d="M52.896,9.11c-0.121,0.282-0.223,0.575-0.363,0.847
		c-0.563,1.082-1.218,2.125-1.69,3.244c-0.54,1.281-0.438,2.55,0.545,3.65c0.633,0.707,1.26,1.419,1.87,2.144
		c0.742,0.883,1.177,1.897,1.019,3.064c-0.157,1.17-0.765,2.113-1.688,2.844c-0.096,0.074-0.242,0.08-0.367,0.118
		c-0.029-0.024-0.059-0.047-0.087-0.071c0.087-0.261,0.178-0.521,0.261-0.785c0.172-0.543,0.377-1.08,0.5-1.635
		c0.137-0.628,0.007-1.257-0.383-1.76c-0.48-0.62-1.036-1.183-1.572-1.758c-0.594-0.634-1.208-1.248-1.602-2.036
		c-0.687-1.371-0.678-2.749-0.049-4.134c0.651-1.437,1.65-2.593,2.906-3.532c0.169-0.125,0.369-0.204,0.554-0.305
		C52.799,9.042,52.847,9.075,52.896,9.11z"/>
	<path display="none" fill-rule="evenodd" clip-rule="evenodd" fill="#4374BA" d="M56.798,32.465
		c-0.629,0.164-1.153,0.314-1.685,0.437c-2.351,0.544-4.727,0.937-7.121,1.238c-4.138,0.52-8.294,0.747-12.461,0.825
		c-1.119,0.021-2.235,0.003-3.418,0.003c0.346-0.315,0.695-0.551,0.936-0.867c0.494-0.656,1.26-0.72,1.935-0.99
		c0.137-0.054,0.284-0.085,0.421-0.141c0.587-0.236,1.186-0.344,1.828-0.373c1.646-0.071,3.146-0.615,4.486-1.589
		c0.131-0.095,0.302-0.16,0.462-0.186c2.047-0.326,4.113-0.167,6.17-0.17c0.321,0,0.676,0.15,0.96,0.323
		c0.589,0.359,1.214,0.587,1.894,0.645c1.194,0.101,2.397,0.119,3.486-0.47c0.873-0.473,0.767-0.393,1.416,0.324
		C56.354,31.747,56.533,32.082,56.798,32.465z"/>
	<path display="none" fill-rule="evenodd" clip-rule="evenodd" fill="#4374BA" d="M10.16,32.128c0.114-0.789,0.325-1.45,1.155-1.725
		c0.611,0.356,1.366,0.358,2.077,0.336c0.85-0.024,1.403,0.264,1.972,0.893c0.673,0.746,1.532,1.325,2.31,1.975
		c0.085,0.071,0.178,0.135,0.343,0.256C15.296,33.464,12.701,32.941,10.16,32.128z"/>
</g>
</svg>
