<?xml version="1.0" encoding="utf-8"?>
<!-- Generator: Adobe Illustrator 16.0.0, SVG Export Plug-In . SVG Version: 6.00 Build 0)  -->
<!DOCTYPE svg PUBLIC "-//W3C//DTD SVG 1.1//EN" "http://www.w3.org/Graphics/SVG/1.1/DTD/svg11.dtd">
<svg version="1.1" id="Layer_1" xmlns="http://www.w3.org/2000/svg" xmlns:xlink="http://www.w3.org/1999/xlink" x="0px" y="0px"
	 width="64px" height="64px" viewBox="0 0 64 64" enable-background="new 0 0 64 64" xml:space="preserve">
<g>
	<path fill-rule="evenodd" clip-rule="evenodd" fill="#4374BA" d="M10.564,31.933c-1.535-4.692-2.567-9.49-3.022-14.404
		c-0.074-0.794,0.046-1.625,0.205-2.413c0.077-0.384,0.429-0.977,0.694-0.998c0.405-0.032,0.978,0.245,1.237,0.579
		c0.603,0.777,1.246,1.607,1.544,2.522c0.835,2.56,1.484,5.181,2.251,7.766c0.224,0.752,0.231,1.725,1.71,2.004
		c-0.566-2.325-1.117-4.427-1.586-6.547c-0.555-2.504-1.037-5.025-1.55-7.538c-0.009-0.044-0.032-0.089-0.028-0.132
		c0.082-0.952-0.2-2.195,1.054-2.48c1.238-0.282,1.6,0.932,1.846,1.775c0.771,2.635,1.354,5.324,2.088,7.97
		c0.457,1.646,1.035,3.26,1.612,4.869c0.129,0.356,0.483,0.629,0.735,0.941c0.154-0.062,0.308-0.124,0.462-0.186
		c-0.256-1.377-0.488-2.759-0.773-4.13c-0.598-2.869-1.307-5.718-1.781-8.607c-0.132-0.802,0.164-2.238,0.672-2.465
		c1.08-0.483,1.856,0.629,2.152,1.542c0.959,2.95,1.759,5.952,2.615,8.935c0.359,1.255,0.676,2.523,1.073,3.765
		c0.112,0.343,0.449,0.614,0.682,0.918c0.165-0.064,0.331-0.129,0.496-0.194c-0.33-1.914-0.658-3.829-0.99-5.743
		c-0.223-1.289-0.518-2.57-0.641-3.869c-0.062-0.651,0.187-1.331,0.296-1.998c0.183-0.051,0.364-0.101,0.546-0.152
		c0.513,0.734,1.233,1.398,1.506,2.212c1.16,3.461,2.154,6.977,3.28,10.45c0.471,1.455,1.063,2.876,1.705,4.265
		c0.29,0.625,0.836,1.133,1.493,1.991c1.306-2.66,2.443-5.052,3.647-7.41c1.438-2.809,2.866-5.627,4.452-8.35
		c0.38-0.651,1.377-0.943,2.089-1.4c0.04,0.799,0.298,1.664,0.082,2.387c-0.825,2.764-1.804,5.48-2.718,8.218
		c-0.067,0.204-0.087,0.425-0.129,0.638c0.102,0.093,0.2,0.184,0.302,0.276c0.332-0.332,0.797-0.606,0.974-1.007
		c1.224-2.761,2.347-5.565,3.582-8.32c0.552-1.229,1.242-2.401,1.954-3.548c0.272-0.439,0.732-0.81,1.187-1.078
		c0.974-0.577,1.789-0.143,1.692,0.969c-0.096,1.064-0.347,2.146-0.721,3.147c-1.148,3.083-2.401,6.127-3.582,9.197
		c-0.171,0.444-0.18,0.95-0.262,1.426c0.138,0.063,0.272,0.127,0.41,0.189c0.291-0.34,0.673-0.639,0.861-1.031
		c1.07-2.23,2.097-4.481,3.132-6.729c0.85-1.841,1.599-3.735,2.579-5.505c0.314-0.569,1.212-0.816,1.844-1.211
		c0.253,0.709,0.864,1.518,0.699,2.111c-0.659,2.377-1.513,4.705-2.383,7.016c-0.781,2.064-1.698,4.074-2.507,6.126
		c-0.118,0.298,0.036,0.702,0.063,1.057c0.296-0.221,0.72-0.378,0.866-0.673c0.556-1.127,0.954-2.335,1.537-3.448
		c1.124-2.15,2.309-4.27,3.525-6.369c0.26-0.448,0.727-0.816,1.17-1.108c0.87-0.572,1.557-0.274,1.55,0.76
		c-0.01,1.207-0.048,2.488-0.447,3.604c-1.451,4.072-3.059,8.089-4.606,12.127c-0.594,1.543-0.289,2.567,0.716,1.439
		c1.531-1.715,3.006-3.49,4.645-5.099c1.058-1.037,2.436-1.276,3.889-0.634c0.827,0.365,0.99,0.874,0.485,1.581
		c-3.696,5.182-7.327,10.412-11.149,15.497c-1.202,1.599-2.815,2.961-4.443,4.154c-4.25,3.114-9.494,2.836-14.242-0.59
		c-0.801-0.578-1.537-1.243-2.4-1.946c-1.622,1.606-3.596,2.631-5.858,3.058c-5.732,1.083-10.026-1.17-13.351-5.732
		C8.386,42.4,6.428,37.936,4.372,33.517c-0.949-2.042-1.987-4.044-3.022-6.044c-0.671-1.296-0.444-1.775,1.015-1.999
		c1.23-0.189,2.284,0.234,3.042,1.126c0.958,1.129,1.792,2.37,2.622,3.602c0.755,1.123,1.296,2.42,2.188,3.412
		C10.885,34.357,11.054,33.432,10.564,31.933z"/>
</g>
</svg>
